<svg width="173" height="126" viewBox="0 0 173 126" fill="none" xmlns="http://www.w3.org/2000/svg">
<g filter="url(#filter0_di_103_1095)">
<path d="M4 75.8304H7.93506C9.03963 75.8304 9.93506 76.7259 9.93506 77.8304V86.9405C9.93506 88.0451 10.8305 88.9405 11.9351 88.9405H16.215C17.3196 88.9405 18.215 89.8359 18.215 90.9405V93.1505C18.215 94.2551 19.1105 95.1505 20.215 95.1505H24.1501C25.2546 95.1505 26.1501 96.046 26.1501 97.1505V100.051C26.1501 101.155 27.0455 102.051 28.1501 102.051H39.3301C40.4347 102.051 41.3301 102.946 41.3301 104.051V107.641C41.3301 108.745 42.2256 109.641 43.3301 109.641H46.5752C47.6797 109.641 48.5752 110.536 48.5752 111.641V112.816C48.5752 113.92 49.4706 114.816 50.5752 114.816H56.5802C57.6848 114.816 58.5802 115.711 58.5802 116.816V117.646C58.5802 118.75 59.4756 119.646 60.5802 119.646H69.6903C70.7948 119.646 71.6903 118.75 71.6903 117.646V116.816C71.6903 115.711 72.5857 114.816 73.6903 114.816H76.0028C76.8602 114.816 77.5553 114.121 77.5553 113.263C77.5553 112.406 78.2504 111.711 79.1078 111.711H84.1803C85.2849 111.711 86.1803 110.815 86.1803 109.711V109.226C86.1803 108.121 87.0758 107.226 88.1803 107.226H95.5654C96.67 107.226 97.5654 108.121 97.5654 109.226V112.816C97.5654 113.92 98.4608 114.816 99.5654 114.816H102.12C103.225 114.816 104.12 115.711 104.12 116.816V117.646C104.12 118.75 105.016 119.646 106.12 119.646H113.505C114.61 119.646 115.505 118.75 115.505 117.646V116.816C115.505 115.711 116.401 114.816 117.505 114.816H126.271C127.375 114.816 128.271 113.92 128.271 112.816V109.226C128.271 108.121 129.166 107.226 130.271 107.226H135.931C137.035 107.226 137.931 108.121 137.931 109.226V109.711C137.931 110.815 138.826 111.711 139.931 111.711H148.696C149.8 111.711 150.696 110.815 150.696 109.711V109.226C150.696 108.121 151.591 107.226 152.696 107.226H158.356C159.46 107.226 160.356 106.33 160.356 105.226V104.051C160.356 102.946 161.251 102.051 162.356 102.051H165.256C166.36 102.051 167.256 101.155 167.256 100.051V97.1505C167.256 96.046 166.36 95.1505 165.256 95.1505H160.286C159.181 95.1505 158.286 94.2551 158.286 93.1505V90.9405C158.286 89.8359 157.39 88.9405 156.286 88.9405H152.696C151.591 88.9405 150.696 88.0451 150.696 86.9405V81.6255C150.696 80.5209 151.591 79.6255 152.696 79.6255H156.388C157.436 79.6255 158.286 78.7759 158.286 77.728C158.286 76.68 159.135 75.8304 160.183 75.8304H165.256C166.36 75.8304 167.256 74.935 167.256 73.8304V60.2353C167.256 59.1308 166.36 58.2353 165.256 58.2353H152.696C151.591 58.2353 150.696 57.3399 150.696 56.2353V46.7802C150.696 45.6757 149.8 44.7802 148.696 44.7802H143.036C141.931 44.7802 141.036 43.8848 141.036 42.7802V40.9152C141.036 39.8107 140.14 38.9152 139.036 38.9152H135.446C134.341 38.9152 133.446 38.0198 133.446 36.9152V31.6002C133.446 30.4957 132.55 29.6002 131.446 29.6002H119.92C118.816 29.6002 117.92 28.7048 117.92 27.6002V26.7702C117.92 25.6656 117.025 24.7702 115.92 24.7702H113.71C112.606 24.7702 111.71 23.8748 111.71 22.7702V19.8702C111.71 18.7656 110.815 17.8702 109.71 17.8702H106.12C105.016 17.8702 104.12 16.9748 104.12 15.8702V12.625C104.12 11.5204 103.225 10.625 102.12 10.625H94.0454C92.9408 10.625 92.0454 9.72958 92.0454 8.62501V4C92.0454 2.89543 91.1499 2 90.0454 2H78.9352C78.1731 2 77.5553 2.61782 77.5553 3.37995C77.5553 4.14207 76.9375 4.75989 76.1754 4.75989H73.6903C72.5857 4.75989 71.6903 5.65533 71.6903 6.7599V8.62501C71.6903 9.72958 70.7948 10.625 69.6903 10.625H60.5802C59.4756 10.625 58.5802 11.5204 58.5802 12.625V30.3602C58.5802 31.4648 57.6848 32.3602 56.5802 32.3602H50.5752C49.4706 32.3602 48.5752 33.2556 48.5752 34.3602V36.9152C48.5752 38.0198 47.6797 38.9152 46.5752 38.9152H43.3301C42.2256 38.9152 41.3301 39.8107 41.3301 40.9152V42.7802C41.3301 43.8848 40.4347 44.7802 39.3301 44.7802H28.1501C27.0455 44.7802 26.1501 45.6757 26.1501 46.7802V50.0253C26.1501 51.1299 25.2546 52.0253 24.1501 52.0253H24.0101C22.9055 52.0253 22.0101 52.9207 22.0101 54.0253V56.2353C22.0101 57.3399 21.1146 58.2353 20.01 58.2353H11.9351C10.8305 58.2353 9.93506 59.1308 9.93506 60.2353V65.2053C9.93506 66.3098 9.03963 67.2053 7.93506 67.2053H4C2.89543 67.2053 2 68.1007 2 69.2053V73.8304C2 74.935 2.89543 75.8304 4 75.8304Z" fill="white" stroke="black" stroke-width="3"/>
<path d="M68.9215 30.1234H64.0489V36.2958H73.7946V30.1234H79.9669V24.276H68.9215V30.1234Z" fill="#049CD8"/>
<path d="M32.5372 77.2284H25.7151V83.0759H32.5372V88.5985H37.0854V92.8217H52.6787V98.0195H64.0489V103.217H77.3682V98.0195H84.84V92.8217H91.0123V98.0195H97.8344V103.217H110.504V98.0195H116.676V92.8217H124.148V81.4516H116.676V77.2284H91.0123V83.0759H79.9669V88.5985H71.1958V92.8217H58.2013V86.6493H52.6787V83.0759H47.8058V86.6493H37.0854V81.4516H32.5372V77.2284Z" fill="#049CD8"/>
<path d="M97.8344 18.4285H91.0123V27.5245H97.8344V32.3974H108.555V24.276H97.8344V18.4285Z" fill="#049CD8"/>
</g>
<defs>
<filter id="filter0_di_103_1095" x="0.5" y="0.5" width="172.256" height="124.646" filterUnits="userSpaceOnUse" color-interpolation-filters="sRGB">
<feFlood flood-opacity="0" result="BackgroundImageFix"/>
<feColorMatrix in="SourceAlpha" type="matrix" values="0 0 0 0 0 0 0 0 0 0 0 0 0 0 0 0 0 0 127 0" result="hardAlpha"/>
<feMorphology radius="2" operator="dilate" in="SourceAlpha" result="effect1_dropShadow_103_1095"/>
<feOffset dx="2" dy="2"/>
<feColorMatrix type="matrix" values="0 0 0 0 0 0 0 0 0 0 0 0 0 0 0 0 0 0 1 0"/>
<feBlend mode="normal" in2="BackgroundImageFix" result="effect1_dropShadow_103_1095"/>
<feBlend mode="normal" in="SourceGraphic" in2="effect1_dropShadow_103_1095" result="shape"/>
<feColorMatrix in="SourceAlpha" type="matrix" values="0 0 0 0 0 0 0 0 0 0 0 0 0 0 0 0 0 0 127 0" result="hardAlpha"/>
<feOffset dx="4" dy="4"/>
<feComposite in2="hardAlpha" operator="arithmetic" k2="-1" k3="1"/>
<feColorMatrix type="matrix" values="0 0 0 0 1 0 0 0 0 1 0 0 0 0 1 0 0 0 1 0"/>
<feBlend mode="normal" in2="shape" result="effect2_innerShadow_103_1095"/>
</filter>
</defs>
</svg>
