<svg width="57" height="57" viewBox="0 0 57 57" fill="none" xmlns="http://www.w3.org/2000/svg">
<g filter="url(#filter0_di_103_1070)">
<rect width="53" height="53" fill="#FBD000"/>
</g>
<rect x="16.2555" y="15.5038" width="6.8801" height="9.69974" fill="black"/>
<rect x="25.8425" y="28.3617" width="6.8801" height="7.10564" fill="black"/>
<rect x="25.8425" y="37.836" width="6.8801" height="7.10564" fill="black"/>
<rect x="32.7226" y="15.5038" width="6.8801" height="9.69974" fill="black"/>
<rect x="19.8647" y="12.3457" width="15.6775" height="3.15816" fill="black"/>
<rect x="14.8263" y="13.3601" width="6.8801" height="9.69974" fill="#FE4D00"/>
<rect x="24.4133" y="26.218" width="6.8801" height="7.10564" fill="#FE4D00"/>
<rect x="24.4133" y="35.6923" width="6.8801" height="7.10564" fill="#FE4D00"/>
<rect x="31.2935" y="13.3601" width="6.88009" height="9.69974" fill="#FE4D00"/>
<rect x="18.4356" y="10.202" width="15.6775" height="3.15816" fill="#FE4D00"/>
<rect x="27.7971" y="23.0598" width="9.58701" height="3.15816" fill="#FE4D00"/>
<ellipse cx="6.85614" cy="6.8561" rx="1.77967" ry="1.77967" fill="black"/>
<ellipse cx="6.85614" cy="46.1439" rx="1.77967" ry="1.77967" fill="black"/>
<ellipse cx="46.1439" cy="6.8561" rx="1.77967" ry="1.77967" fill="black"/>
<circle cx="46.1439" cy="46.1439" r="1.77967" fill="black"/>
<defs>
<filter id="filter0_di_103_1070" x="0" y="0" width="57" height="57" filterUnits="userSpaceOnUse" color-interpolation-filters="sRGB">
<feFlood flood-opacity="0" result="BackgroundImageFix"/>
<feColorMatrix in="SourceAlpha" type="matrix" values="0 0 0 0 0 0 0 0 0 0 0 0 0 0 0 0 0 0 127 0" result="hardAlpha"/>
<feOffset dx="4" dy="4"/>
<feColorMatrix type="matrix" values="0 0 0 0 0 0 0 0 0 0 0 0 0 0 0 0 0 0 1 0"/>
<feBlend mode="normal" in2="BackgroundImageFix" result="effect1_dropShadow_103_1070"/>
<feBlend mode="normal" in="SourceGraphic" in2="effect1_dropShadow_103_1070" result="shape"/>
<feColorMatrix in="SourceAlpha" type="matrix" values="0 0 0 0 0 0 0 0 0 0 0 0 0 0 0 0 0 0 127 0" result="hardAlpha"/>
<feOffset dx="4" dy="4"/>
<feComposite in2="hardAlpha" operator="arithmetic" k2="-1" k3="1"/>
<feColorMatrix type="matrix" values="0 0 0 0 0.996078 0 0 0 0 0.301961 0 0 0 0 0 0 0 0 1 0"/>
<feBlend mode="normal" in2="shape" result="effect2_innerShadow_103_1070"/>
</filter>
</defs>
</svg>
